<?xml version="1.0" encoding="iso-8859-1"?>
<!-- Generator: Adobe Illustrator 18.1.1, SVG Export Plug-In . SVG Version: 6.00 Build 0)  -->
<svg version="1.1" id="Capa_1" xmlns="http://www.w3.org/2000/svg" xmlns:xlink="http://www.w3.org/1999/xlink" x="0px" y="0px"
	 viewBox="0 0 335.656 335.656" style="enable-background:new 0 0 335.656 335.656;" xml:space="preserve">
<g>
	<path style="fill:#010002;" d="M54.907,111.698c8.974,0,18.103-2.202,26.654-6.402l64.973,64.967l31.714-31.72l-64.961-64.961
		c10.591-21.493,8.031-45.181-6.886-60.098C92.839-0.085,70.475-3.463,50.247,4.861l-8.282,3.407l22.972,22.972l-5.436,20.281
		L39.22,56.958L16.248,33.986l-3.407,8.282c-8.545,20.777-5.239,42.293,8.622,56.154C30.031,106.978,41.905,111.698,54.907,111.698z
		"/>
	<path style="fill:#010002;" d="M322.348,231.006c-8.568-8.562-20.437-13.276-33.438-13.276c-8.974,0-18.098,2.202-26.654,6.396
		l-64.967-64.961l-31.714,31.72l64.961,64.961c-10.591,21.499-8.031,45.181,6.88,60.098c8.551,8.551,20.407,13.258,33.397,13.258
		c7.62,0,15.275-1.563,22.752-4.636l8.276-3.407l-22.966-22.966l5.436-20.275l20.281-5.442l22.966,22.978l3.407-8.282
		C339.521,266.395,336.215,244.879,322.348,231.006z"/>
	<path style="fill:#010002;" d="M254.893,89.09l8.145,8.145L315.266,45l-25.622-25.616l-52.228,52.228l9.04,9.04L95.559,231.543
		l-7.053-7.047L0,313.014l22.304,22.292l88.513-88.513l-6.814-6.814L254.893,89.09z"/>
</g>
<g>
</g>
<g>
</g>
<g>
</g>
<g>
</g>
<g>
</g>
<g>
</g>
<g>
</g>
<g>
</g>
<g>
</g>
<g>
</g>
<g>
</g>
<g>
</g>
<g>
</g>
<g>
</g>
<g>
</g>
</svg>
